<svg height="511pt" viewBox="0 0 511 511.9986" width="511pt" xmlns="http://www.w3.org/2000/svg"><path d="m10.5 193.964844v-63.390625c0-45.976563 37.273438-83.253907 83.253906-83.253907 45.980469 0 83.253906 37.273438 83.253906 83.253907v63.390625zm0 0" fill="#ff9d6c"/><path d="m128.5 359.199219h-118l25 42-25 42h118l25-42zm0 0" fill="#b0e7f8"/><path d="m432.878906 401.199219-30.226562 46.800781 99.84375-46.800781-99.84375-46.804688zm0 0" fill="#b0e7f8"/><path d="m236.496094 331.835938h40v170.160156h-40zm0 0" fill="#b5bcc9"/><path d="m313.957031 83.003906 20.398438 9.933594 1.851562-.382812c6.402344-16.046876 22.074219-27.390626 40.402344-27.390626 11.988281 0 22.839844 4.847657 30.707031 12.6875l.351563-.070312v-29.332031c2.644531-15.269531-7.34375-29.835938-22.304688-32.535157-7.042969-1.269531-13.914062.34375-19.511719 3.972657-4.199218-4.773438-9.914062-8.222657-16.582031-9.425781-15.847656-2.855469-30.964843 7.941406-33.765625 24.117187-.109375.640625-.164062 1.277344-.234375 1.917969-8.179687 2.773437-14.644531 9.917968-16.25 19.191406-2.035156 11.777344 4.449219 23.082031 14.9375 27.316406zm0 0" fill="#ff6977"/><path d="m114.890625 201.839844c0 71.796875 58.203125 129.996094 129.996094 129.996094h22.613281c71.792969 0 129.996094-58.199219 129.996094-129.996094v-72.441406h22.613281v-20.738282c0-24.023437-19.472656-43.496094-43.496094-43.496094-24.023437 0-43.5 19.472657-43.5 43.496094v54.625h-218.222656zm0 0" fill="#ffcb7c"/><path d="m183.476562 203.730469h80.675782c21.136718 0 38.269531 17.132812 38.269531 38.269531s-17.132813 38.269531-38.269531 38.269531h-4.136719c-42.269531 0-76.539063-34.269531-76.539063-76.539062zm0 0" fill="#ff9d6c"/><path d="m173.476562 203.730469c0 47.71875 38.820313 86.539062 86.539063 86.539062h4.136719c26.617187 0 48.273437-21.65625 48.273437-48.269531 0-26.617188-21.65625-48.269531-48.273437-48.269531h-80.675782c-5.519531 0-10 4.476562-10 10zm90.675782 10c15.589844 0 28.273437 12.679687 28.273437 28.269531s-12.683593 28.269531-28.273437 28.269531h-4.136719c-33.292969 0-60.949219-24.574219-65.789063-56.539062zm0 0"/><path d="m380.296875 113.203125c1.859375-1.859375 2.917969-4.441406 2.917969-7.070313 0-2.628906-1.058594-5.210937-2.917969-7.070312-1.863281-1.859375-4.441406-2.929688-7.070313-2.929688-2.640624 0-5.210937 1.070313-7.082031 2.929688-1.859375 1.859375-2.917969 4.441406-2.917969 7.070312 0 2.628907 1.058594 5.210938 2.917969 7.070313 1.871094 1.859375 4.449219 2.929687 7.082031 2.929687 2.628907 0 5.199219-1.070312 7.070313-2.929687zm0 0"/><path d="m506.738281 392.144531-99.84375-46.804687c-4.039062-1.894532-8.84375-.878906-11.773437 2.480468-2.933594 3.359376-3.289063 8.253907-.871094 12l20.265625 31.378907h-128.019531v-50.65625c68.238281-9.300781 121-67.949219 121-138.699219v-62.441406h12.613281c5.523437 0 10-4.480469 10-10v-20.738282c0-15.375-6.527344-29.246093-16.945313-39.011718l4.265626-19.011719c.035156-.160156.066406-.320313.09375-.484375 3.574218-20.640625-10.058594-40.417969-30.382813-44.082031-6.621094-1.195313-13.359375-.550781-19.574219 1.800781-4.839844-3.683594-10.441406-6.15625-16.523437-7.253906-10.203125-1.839844-20.519531.4375-29.050781 6.40625-7.785157 5.445312-13.25 13.359375-15.625 22.53125-8.992188 5.027344-15.386719 13.945312-17.199219 24.421875-2.769531 16.015625 5.921875 31.996093 20.695312 38.15625l14.136719 6.882812c-.570312 3.132813-.886719 6.351563-.886719 9.644531v44.625h-28.054687c-5.519532 0-10 4.476563-10 10 0 5.519532 4.480468 10 10 10h38.054687c5.523438 0 10-4.480468 10-10v-54.625c0-18.472656 15.027344-33.5 33.5-33.5 18.46875 0 33.496094 15.027344 33.496094 33.5v10.738282h-12.613281c-5.523438 0-10 4.476562-10 10v72.441406c0 66.164062-53.828125 119.992188-119.996094 119.992188h-22.613281c-66.164063 0-119.992188-53.828126-119.992188-119.992188v-28.558594h90.164063c5.523437 0 10-4.476562 10-10 0-5.519531-4.476563-10-10-10h-28.050782v-22.710937c0-51.417969-41.832031-93.253907-93.253906-93.253907s-93.253906 41.835938-93.253906 93.253907v63.390625c0 5.523437 4.476562 10 10 10h94.417969c1.046875 70.007812 53.730469 127.71875 121.578125 136.664062v50.570313h-67.3125l-22.09375-37.117188c-1.800782-3.027343-5.066406-4.882812-8.589844-4.882812h-118c-3.597656 0-6.917969 1.929687-8.691406 5.058593-1.777344 3.125-1.7421878 6.964844.097656 10.054688l21.957031 36.886719-21.957031 36.882812c-1.8398438 3.089844-1.8789062 6.929688-.101562 10.058594 1.777343 3.125 5.097656 5.054687 8.695312 5.054687h117.996094c3.527344 0 6.792968-1.855468 8.59375-4.882812l22.09375-37.113281h67.3125v90.800781c0 5.519531 4.476562 10 10 10h40c5.523437 0 10-4.480469 10-10v-90.800781h128.019531l-20.265625 31.375c-2.417969 3.746093-2.0625 8.644531.867188 12 1.945312 2.230469 4.714843 3.425781 7.539062 3.425781 1.429688 0 2.878906-.308594 4.238281-.945312l99.84375-46.800782c3.511719-1.648437 5.753907-5.175781 5.753907-9.054687 0-3.878907-2.242188-7.410157-5.753907-9.054688zm-130.128906-336.980469c-19.089844 0-35.867187 10.058594-45.335937 25.148438l-12.9375-6.300781c-.207032-.101563-.421876-.195313-.632813-.28125-6.3125-2.546875-10.023437-9.417969-8.828125-16.339844.925781-5.351563 4.609375-9.730469 9.609375-11.425781 3.683594-1.25 6.308594-4.523438 6.726563-8.390625l.046874-.4375c.027344-.28125.050782-.5625.101563-.855469.914063-5.285156 3.792969-9.855469 8.101563-12.871094 4.132812-2.894531 9.121093-3.992187 14.035156-3.109375 4.207031.757813 7.957031 2.898438 10.851562 6.1875 3.273438 3.722657 8.785156 4.484375 12.949219 1.785157 3.6875-2.390626 8.054687-3.285157 12.296875-2.519532 9.476562 1.707032 15.835938 11 14.261719 20.773438l-2.683594 11.957031c-5.785156-2.144531-12.039063-3.320313-18.5625-3.320313zm-261.71875 98.121094c-5.519531 0-9.996094 4.480469-9.996094 10v20.679688h-23.375v-22.082032c0-23.566406 19.175781-42.742187 42.742188-42.742187 20.625 0 37.886719 14.683594 41.875 34.144531zm-21.136719-95.964844c34.824219 0 64.03125 24.433594 71.425782 57.054688-10.996094-9.484375-25.292969-15.238281-40.917969-15.238281-34.597657 0-62.742188 28.148437-62.742188 62.746093v22.082032h-41.019531v-53.390625c0-40.390625 32.859375-73.253907 73.253906-73.253907zm29.058594 311.878907 13.09375 22h-94.722656l-13.09375-22zm0 64h-94.722656l13.09375-22h94.726562zm123.683594-91.363281h20v49.359374h-20zm0 150.160156v-80.800782h20v80.800782zm183.460937-67.839844 11.324219-17.53125c2.132812-3.304688 2.132812-7.550781 0-10.851562l-11.324219-17.535157 48.976563 22.960938zm0 0"/><path d="m255.054688 173.28125c2.632812 0 5.210937-1.058594 7.082031-2.929688 1.859375-1.859374 2.917969-4.429687 2.917969-7.070312 0-2.628906-1.058594-5.210938-2.917969-7.070312-1.871094-1.859376-4.441407-2.929688-7.082031-2.929688-2.628907 0-5.207032 1.070312-7.066407 2.929688-1.859375 1.859374-2.933593 4.441406-2.933593 7.070312 0 2.640625 1.070312 5.210938 2.933593 7.070312 1.867188 1.871094 4.4375 2.929688 7.066407 2.929688zm0 0"/></svg>