<svg id="Layer_2" enable-background="new 0 0 64 64" height="512" viewBox="0 0 64 64" width="512" xmlns="http://www.w3.org/2000/svg"><path d="m53.623 16.328c-1.696-8.18-8.941-14.328-17.623-14.328-5.87 0-11.068 2.823-14.354 7.171-.531-.111-1.082-.171-1.646-.171-3.392 0-6.285 2.115-7.448 5.096-5.943.716-10.552 5.768-10.552 11.904 0 6.627 5.373 12 12 12h37c6.075 0 11-4.925 11-11 0-5.169-3.571-9.494-8.377-10.672z" fill="#edeff1"/><path d="m33.88 29.203c-1.232-1.911-3.33-3.12-5.64-3.199-2.457-3.154-6.202-5.004-10.24-5.004-6.221 0-11.564 4.503-12.747 10.489-.532.192-1.022.455-1.491.747 2.107 3.452 5.897 5.764 10.238 5.764h27c0-4.256-3.048-7.922-7.12-8.797z" fill="#d3d3d3"/><path d="m8 45c-3.314 0-6-2.686-6-6 0-2.988 2.187-5.459 5.046-5.917.467-5.645 5.188-10.083 10.954-10.083 3.891 0 7.303 2.026 9.258 5.075.244-.037.488-.075.742-.075 2.061 0 3.829 1.249 4.594 3.03 3.587.302 6.406 3.305 6.406 6.97 0 3.866-3.134 7-7 7z" fill="#edeff1"/><g fill="#80d6fb"><path d="m55 43h-36v-2h36c2.757 0 5-2.243 5-5s-2.243-5-5-5-5 2.243-5 5h-2c0-3.86 3.141-7 7-7s7 3.14 7 7-3.141 7-7 7z"/><path d="m39 63c-3.309 0-6-2.691-6-6h2c0 2.206 1.794 4 4 4s4-1.794 4-4-1.794-4-4-4h-27v-2h27c3.309 0 6 2.691 6 6s-2.691 6-6 6z"/><path d="m57 59c-3.309 0-6-2.691-6-6h2c0 2.206 1.794 4 4 4s4-1.794 4-4-1.794-4-4-4h-18v-2h18c3.309 0 6 2.691 6 6s-2.691 6-6 6z"/><path d="m2 47h31v2h-31z"/></g></svg>